<svg width="1058" height="654" xmlns:ev="http://www.w3.org/2001/xml-events" xmlns="http://www.w3.org/2000/svg" xmlns:xlink="http://www.w3.org/1999/xlink" viewBox="0 0 1058 654"><defs/><g id="page1" transform="translate(5.5,5.5)"><rect width="1049" height="644" fill="none" x="0" y="0"/><path fill="#eef4ff" stroke-width="1.666669964790344" id="shape1" fill-rule="nonzero" stroke="#101843" d="M1046.2,642.0L1046.2,.0L.0,.0L.0,642.0L1046.2,642.0z"/><g id="shape2" transform="translate(695.000000,510.809800)"><text xml:space="preserve" style="fill:#ff0000;font-family:Ubuntu Mono;font-size:26.00pt"><tspan x="44.4" y="83.6" style="fill:#191919">OPC UA 地址空间</tspan></text></g><g id="shape3" transform="translate(46.746000,205.148400)"><path fill="#ffffff" stroke-width="1.333330035209656" fill-rule="nonzero" stroke="#101843" d="M245.1,69.4L245.1,.0L.0,.0L.0,69.4L245.1,69.4z"/><text xml:space="preserve" style="fill:#191919;font-family:Ubuntu Mono;font-size:16.00pt"><tspan x="64.9" y="45.2">对象 Object</tspan></text></g><g id="shape4" transform="translate(449.762000,205.148400)"><path fill="#ffffff" stroke-width="1.333330035209656" fill-rule="nonzero" stroke="#101843" d="M245.1,69.4L245.1,.0L.0,.0L.0,69.4L245.1,69.4z"/><text xml:space="preserve" style="fill:#191919;font-family:Ubuntu Mono;font-size:16.00pt"><tspan x="22.9" y="45.2">对象类型 ObjectType</tspan></text></g><g id="shape5" transform="translate(449.762000,239.848000)"><path fill="none" stroke-width="1.333330035209656" stroke="#191919" d="M.0,.0L-151.0,.0"/><path fill="#191919" stroke-width="1" stroke="#191919" d="M-151.0,3.5L-157.9,.0L-151.0,-3.5L-151.0,3.5" stroke-linecap="round"/></g><g id="shape6" transform="translate(46.746000,367.452400)"><path fill="#ffffff" stroke-width="1" fill-rule="nonzero" stroke="#101843" d="M245.1,69.4L245.1,.0L.0,.0L.0,69.4L245.1,69.4z"/><text xml:space="preserve" style="fill:#191919;font-family:Ubuntu Mono;font-size:16.00pt"><tspan x="54.4" y="45.2">变量 Variable</tspan></text></g><g id="shape7" transform="translate(449.762000,367.452400)"><path fill="#ffffff" stroke-width="1.333330035209656" fill-rule="nonzero" stroke="#101843" d="M245.1,69.4L245.1,.0L.0,.0L.0,69.4L245.1,69.4z"/><text xml:space="preserve" style="fill:#191919;font-family:Ubuntu Mono;font-size:16.00pt"><tspan x="12.4" y="45.2">变量类型 VariableType</tspan></text></g><g id="shape8" transform="translate(449.762000,402.152000)"><path fill="none" stroke-width="1.333330035209656" stroke="#191919" d="M.0,.0L-151.0,.0"/><path fill="#191919" stroke-width="1" stroke="#191919" d="M-151.0,3.5L-157.9,.0L-151.0,-3.5L-151.0,3.5" stroke-linecap="round"/></g><g id="shape9" transform="translate(46.746000,529.757400)"><path fill="#ffffff" stroke-width="1.333330035209656" fill-rule="nonzero" stroke="#101843" d="M245.1,69.4L245.1,.0L.0,.0L.0,69.4L245.1,69.4z"/><text xml:space="preserve" style="fill:#191919;font-family:Ubuntu Mono;font-size:16.00pt"><tspan x="33.4" y="45.2">数据类型 DataType</tspan></text></g><g id="shape10" transform="translate(169.314000,529.757400)"><path fill="none" stroke-width="1.333330035209656" stroke="#191919" d="M.0,.0L.0,-86.0"/><path fill="#191919" stroke-width="1" stroke="#191919" d="M-3.5,-86.0L.0,-92.9L3.5,-86.0L-3.5,-86.0" stroke-linecap="round"/></g><g id="shape11" transform="translate(169.314000,367.452400)"><path fill="none" stroke-width="1.333330035209656" stroke="#191919" d="M.0,.0L.0,-86.0"/><path fill="#191919" stroke-width="1" stroke="#191919" d="M-3.5,-86.0L.0,-92.9L3.5,-86.0L-3.5,-86.0" stroke-linecap="round"/></g><g id="shape12" transform="translate(46.746000,42.843400)"><path fill="#ffffff" stroke-width="1.333330035209656" fill-rule="nonzero" stroke="#101843" d="M245.1,69.4L245.1,.0L.0,.0L.0,69.4L245.1,69.4z"/><text xml:space="preserve" style="fill:#191919;font-family:Ubuntu Mono;font-size:16.00pt"><tspan x="64.9" y="45.2">方法 Method</tspan></text></g><g id="shape13" transform="translate(169.314000,112.242600)"><path fill="none" stroke-width="1.333330035209656" stroke="#191919" d="M.0,.0L.0,86.0"/><path fill="#191919" stroke-width="1" stroke="#191919" d="M3.5,86.0L.0,92.9L-3.5,86.0L3.5,86.0" stroke-linecap="round"/></g><g id="shape14" transform="translate(164.105700,139.632800)"><text xml:space="preserve" style="fill:#fe9d17;font-family:Ubuntu Mono;font-size:11.00pt"><tspan x="15.7" y="26.5">组成：HasComponent</tspan></text></g><g id="shape15" transform="translate(164.105700,301.937800)"><text xml:space="preserve" style="fill:#fe9d17;font-family:Ubuntu Mono;font-size:11.00pt"><tspan x="15.7" y="26.1">组成：HasComponent</tspan></text></g><g id="shape16" transform="translate(164.105700,464.241800)"><text xml:space="preserve" style="fill:#fe9d17;font-family:Ubuntu Mono;font-size:11.00pt"><tspan x="15.7" y="26.1">组成：HasComponent</tspan></text></g><g id="shape17" transform="translate(302.822000,374.814400)"><text xml:space="preserve" style="fill:#fe9d17;font-family:Ubuntu Mono;font-size:11.00pt"><tspan x="45.5" y="26.3">实例化</tspan><tspan x="4.3" y="42.3">HasTypeDefinition</tspan></text></g><g id="shape18" transform="translate(302.822000,212.510400)"><text xml:space="preserve" style="fill:#fe9d17;font-family:Ubuntu Mono;font-size:11.00pt"><tspan x="45.5" y="26.3">实例化</tspan><tspan x="4.3" y="42.3">HasTypeDefinition</tspan></text></g><g id="shape19" transform="translate(449.762000,42.843400)"><path fill="#ffd78e" stroke-width="1.333330035209656" fill-rule="nonzero" stroke="#101843" d="M245.1,69.4L245.1,.0L.0,.0L.0,69.4L245.1,69.4z"/><text xml:space="preserve" style="fill:#191919;font-family:Ubuntu Mono;font-size:16.00pt"><tspan x="7.2" y="45.5">引用类型 ReferenceType</tspan></text></g><g id="shape20" transform="translate(754.330000,42.844000)"><path fill="#ffffff" stroke-width="1.333330035209656" fill-rule="nonzero" stroke="#101843" d="M245.1,394.0L245.1,.0L.0,.0L.0,394.0L245.1,394.0z"/><text xml:space="preserve" style="fill:#191919;font-family:Ubuntu Mono;font-size:16.00pt"><tspan x="75.3" y="29.0">视图 View</tspan></text></g><g id="shape21" transform="translate(789.682000,135.228000)"><path fill="#a0ffa3" stroke-width="1.333330035209656" fill-rule="nonzero" stroke="#101843" d="M174.4,77.5L174.4,.0L.0,.0L.0,77.5L174.4,77.5z"/><text xml:space="preserve" style="fill:#191919;font-family:Ubuntu Mono;font-size:14.00pt"><tspan x="39.7" y="20.0">View Point</tspan></text></g><g id="shape22" transform="translate(789.682000,294.321000)"><path fill="#c5dcff" stroke-width="1.333330035209656" fill-rule="nonzero" stroke="#101843" d="M174.4,77.5L174.4,.0L.0,.0L.0,77.5L174.4,77.5z"/><text xml:space="preserve" style="fill:#191919;font-family:Ubuntu Mono;font-size:14.00pt"><tspan x="6.5" y="69.5">Interested Points</tspan></text></g><path fill="#ffffff" stroke-width="1" id="shape23" transform="translate(865.398000,182.947000)" fill-rule="nonzero" stroke="#101843" d="M.0,11.5C.0,5.1,5.1,.0,11.5,.0C17.9,.0,23.0,5.1,23.0,11.5C23.0,17.9,17.9,23.0,11.5,23.0C5.1,23.0,.0,17.9,.0,11.5z"/><path fill="#ffffff" stroke-width="1" id="shape24" transform="translate(805.455000,301.938000)" fill-rule="nonzero" stroke="#101843" d="M.0,11.5C.0,5.1,5.1,.0,11.5,.0C17.9,.0,23.0,5.1,23.0,11.5C23.0,17.9,17.9,23.0,11.5,23.0C5.1,23.0,.0,17.9,.0,11.5z"/><path fill="#ffffff" stroke-width="1" id="shape25" transform="translate(844.330000,301.938000)" fill-rule="nonzero" stroke="#101843" d="M.0,11.5C.0,5.1,5.1,.0,11.5,.0C17.9,.0,23.0,5.1,23.0,11.5C23.0,17.9,17.9,23.0,11.5,23.0C5.1,23.0,.0,17.9,.0,11.5z"/><path fill="#ffffff" stroke-width="1" id="shape26" transform="translate(883.205000,301.938000)" fill-rule="nonzero" stroke="#101843" d="M.0,11.5C.0,5.1,5.1,.0,11.5,.0C17.9,.0,23.0,5.1,23.0,11.5C23.0,17.9,17.9,23.0,11.5,23.0C5.1,23.0,.0,17.9,.0,11.5z"/><path fill="#ffffff" stroke-width="1" id="shape27" transform="translate(922.080000,301.938000)" fill-rule="nonzero" stroke="#101843" d="M.0,11.5C.0,5.1,5.1,.0,11.5,.0C17.9,.0,23.0,5.1,23.0,11.5C23.0,17.9,17.9,23.0,11.5,23.0C5.1,23.0,.0,17.9,.0,11.5z"/><g id="shape28" transform="translate(867.206302,200.640051)"><path fill="none" stroke-width="1" stroke="#191919" d="M.0,.0C-10.7,6.9,-21.3,13.9,-30.3,25.0C-39.2,36.2,-46.4,51.7,-49.4,65.1C-52.0,76.6,-51.6,86.7,-50.7,96.5"/><path fill="#191919" stroke-width="1" stroke="#191919" d="M-47.8,95.0L-50.3,101.3L-53.8,95.6L-47.8,95.0" stroke-linecap="round"/></g><g id="shape29" transform="translate(871.043309,204.347209)"><path fill="none" stroke-width="1" stroke="#191919" d="M.0,.0C-6.1,10.0,-12.2,20.0,-15.8,30.1C-19.3,40.2,-20.2,50.3,-19.7,61.6C-19.3,71.4,-17.7,82.0,-16.0,92.7"/><path fill="#191919" stroke-width="1" stroke="#191919" d="M-13.2,91.2L-15.2,97.6L-19.1,92.1L-13.2,91.2" stroke-linecap="round"/></g><g id="shape30" transform="translate(883.302547,203.999980)"><path fill="none" stroke-width="1" stroke="#191919" d="M.0,.0C3.7,8.8,7.5,17.6,10.0,27.9C12.6,38.3,14.0,50.0,14.0,61.9C14.1,72.2,13.1,82.6,11.9,93.0"/><path fill="#191919" stroke-width="1" stroke="#191919" d="M15.0,92.3L11.4,97.9L9.1,91.6L15.0,92.3" stroke-linecap="round"/></g><g id="shape31" transform="translate(886.255353,201.133600)"><path fill="none" stroke-width="1" stroke="#191919" d="M.0,.0C11.6,6.8,23.2,13.7,30.1,23.8C36.9,34.0,39.0,47.4,41.1,60.8C42.9,72.7,44.8,84.6,46.6,96.5"/><path fill="#191919" stroke-width="1" stroke="#191919" d="M49.4,94.4L47.3,100.8L43.4,95.3L49.4,94.4" stroke-linecap="round"/></g></g></svg>